<svg version="1.2" xmlns="http://www.w3.org/2000/svg" viewBox="0 0 475 475" width="300" height="300">
	<title>Circle design-svg</title>
	<style>
		.s0 { fill: none;stroke: #f1e4ff;stroke-width: 3 } 
		.s1 { fill: #f1e4ff } 
	</style>
	<g id="Layer" style="opacity: .5">
		<path id="Layer" class="s0" d="m237.5 473.5c-130.5 0-236-105.5-236-236 0-130.5 105.5-236 236-236 130.5 0 236 105.5 236 236 0 130.5-105.5 236-236 236z"/>
		<path id="Layer" fill-rule="evenodd" class="s1" d="m71.3 237.5c0-91.8 74.4-166.2 166.2-166.2 91.8 0 166.2 74.4 166.2 166.2 0 91.8-74.4 166.2-166.2 166.2-91.8 0-166.2-74.4-166.2-166.2zm166.2 97.7c54 0 97.7-43.7 97.7-97.7 0-54-43.7-97.7-97.7-97.7-54 0-97.7 43.7-97.7 97.7 0 54 43.7 97.7 97.7 97.7z"/>
	</g>
</svg>